<svg width="25" height="24" viewBox="0 0 25 24" fill="none" xmlns="http://www.w3.org/2000/svg">
<path fill-rule="evenodd" clip-rule="evenodd" d="M9.37774 6.37856C9.37774 8.24523 7.83886 9.75821 5.93887 9.75821C4.03999 9.75821 2.5 8.24523 2.5 6.37856C2.5 4.51298 4.03999 3 5.93887 3C7.83886 3 9.37774 4.51298 9.37774 6.37856ZM20.9933 4.89833C21.8244 4.89833 22.5 5.56203 22.5 6.37856C22.5 7.19618 21.8244 7.85989 20.9933 7.85989H14.4178C13.5856 7.85989 12.9101 7.19618 12.9101 6.37856C12.9101 5.56203 13.5856 4.89833 14.4178 4.89833H20.9933ZM4.00777 15.958H10.5833C11.4155 15.958 12.0911 16.6217 12.0911 17.4393C12.0911 18.2558 11.4155 18.9206 10.5833 18.9206H4.00777C3.17555 18.9206 2.5 18.2558 2.5 17.4393C2.5 16.6217 3.17555 15.958 4.00777 15.958ZM19.0611 20.7778C20.9611 20.7778 22.5 19.2648 22.5 17.3992C22.5 15.5325 20.9611 14.0196 19.0611 14.0196C17.1623 14.0196 15.6223 15.5325 15.6223 17.3992C15.6223 19.2648 17.1623 20.7778 19.0611 20.7778Z" fill="#73729B"/>
</svg>
