<svg width="20" height="20" viewBox="0 0 20 20" fill="none" xmlns="http://www.w3.org/2000/svg">
<path d="M11.3397 0.956018C11.9285 1.20702 12.3307 1.80216 12.3307 2.51401L12.3313 8.15394C12.3313 8.24598 12.4059 8.32059 12.4979 8.32059H15.0828C15.8209 8.32059 16.3295 8.8188 16.5388 9.34172C16.7478 9.86409 16.7197 10.535 16.3023 11.0707L10.4704 18.5565C10.0026 19.1569 9.26709 19.3024 8.65975 19.0436C8.07088 18.7926 7.66871 18.1974 7.66871 17.4856L7.66816 11.8456C7.66815 11.7536 7.59353 11.679 7.50149 11.679H4.91667C4.17849 11.679 3.66993 11.1808 3.46065 10.6579C3.25159 10.1355 3.27977 9.46457 3.69713 8.92884L9.529 1.44307C9.99679 0.842621 10.7323 0.697145 11.3397 0.956018Z" fill="#A7A6C0"/>
</svg>
