<svg width="20" height="20" viewBox="0 0 20 20" fill="none" xmlns="http://www.w3.org/2000/svg">
<path fill-rule="evenodd" clip-rule="evenodd" d="M7.93665 1.66328C8.63321 1.27239 9.27842 1.04166 10.0001 1.04166C10.7219 1.04166 11.3671 1.27239 12.0636 1.66328C12.7386 2.04201 13.5119 2.6012 14.4844 3.30435L14.4844 3.30436L15.742 4.2136C16.5224 4.77788 17.1457 5.22857 17.6159 5.64572C18.1014 6.07644 18.4645 6.50582 18.6949 7.04594C18.9258 7.58723 18.9816 8.14203 18.9506 8.78172C18.9208 9.39904 18.8063 10.1438 18.6636 11.0726L18.4008 12.7823C18.198 14.1021 18.0365 15.153 17.7993 15.9718C17.5539 16.8184 17.2084 17.4906 16.5906 18.0043C15.9755 18.516 15.2427 18.7439 14.3476 18.8526C13.4768 18.9583 12.3784 18.9583 10.9909 18.9583H9.00939C7.62193 18.9583 6.52348 18.9583 5.65269 18.8526C4.75756 18.7439 4.02479 18.516 3.40965 18.0043C2.79194 17.4906 2.44634 16.8184 2.20102 15.9718C1.96377 15.153 1.80227 14.1021 1.59946 12.7822L1.33675 11.0727C1.19401 10.1439 1.07954 9.39906 1.04965 8.78172C1.01868 8.14203 1.07452 7.58723 1.30539 7.04594C1.53576 6.50582 1.89893 6.07644 2.38439 5.64572C2.85455 5.22857 3.47789 4.77788 4.25834 4.21359L5.51587 3.30436C6.48836 2.6012 7.26173 2.04202 7.93665 1.66328ZM8.01206 13.5091C7.64888 13.2264 7.12529 13.2916 6.84259 13.6548C6.55989 14.018 6.62512 14.5416 6.9883 14.8243C7.80353 15.4589 8.85959 15.8334 10.0002 15.8334C11.1408 15.8334 12.1968 15.4589 13.0121 14.8243C13.3752 14.5416 13.4405 14.018 13.1578 13.6548C12.8751 13.2916 12.3515 13.2264 11.9883 13.5091C11.471 13.9118 10.7767 14.1667 10.0002 14.1667C9.2237 14.1667 8.52937 13.9118 8.01206 13.5091Z" fill="#A7A6C0"/>
</svg>
