<svg width="37" height="38" viewBox="0 0 37 38" fill="none" xmlns="http://www.w3.org/2000/svg">
<path d="M0 19C0 29.1737 8.24738 37.4211 18.4211 37.4211C28.5947 37.4211 36.8421 29.1737 36.8421 19C36.8421 8.82633 28.5947 0.578949 18.4211 0.578949C8.24738 0.578949 0 8.82633 0 19Z" fill="#5A50FE"/>
<mask id="mask0_2006_92" style="mask-type:alpha" maskUnits="userSpaceOnUse" x="0" y="0" width="37" height="38">
<path d="M0 19C0 29.1737 8.24738 37.4211 18.4211 37.4211C28.5947 37.4211 36.8421 29.1737 36.8421 19C36.8421 8.82633 28.5947 0.578949 18.4211 0.578949C8.24738 0.578949 0 8.82633 0 19Z" fill="#96FF00"/>
</mask>
<g mask="url(#mask0_2006_92)">
<path d="M36.8421 4.46527V9.04235C33.0301 9.30017 20.6143 12.1481 11.935 37.421H6.83265L0 24.4848H5.20423L9.06543 29.418C9.06543 29.418 17.8083 5.59605 36.8421 4.46527Z" fill="#F7F7FF"/>
</g>
</svg>
