<svg width="20" height="20" viewBox="0 0 20 20" fill="none" xmlns="http://www.w3.org/2000/svg">
<path fill-rule="evenodd" clip-rule="evenodd" d="M10 2.29166C10.5753 2.29166 11.0417 2.75803 11.0417 3.33332V8.95832H16.6667C17.242 8.95832 17.7084 9.42469 17.7084 9.99999C17.7084 10.5753 17.242 11.0417 16.6667 11.0417H11.0417V16.6667C11.0417 17.242 10.5753 17.7083 10 17.7083C9.42472 17.7083 8.95835 17.242 8.95835 16.6667V11.0417H3.33335C2.75806 11.0417 2.29169 10.5753 2.29169 9.99999C2.29169 9.42469 2.75806 8.95832 3.33335 8.95832H8.95835V3.33332C8.95835 2.75803 9.42472 2.29166 10 2.29166Z" fill="#73729B"/>
</svg>
