<svg width="20" height="20" viewBox="0 0 20 20" fill="none" xmlns="http://www.w3.org/2000/svg">
<path fill-rule="evenodd" clip-rule="evenodd" d="M10.0493 1.45834H9.95397C8.12789 1.45833 6.69358 1.45832 5.57377 1.60884C4.42624 1.76308 3.51578 2.08561 2.80042 2.80077C2.08505 3.51594 1.76244 4.42615 1.60816 5.57336C1.49878 6.38669 1.46887 7.36596 1.46069 8.5408C1.45796 8.93285 1.4566 9.12888 1.57884 9.25194C1.70109 9.37501 1.89813 9.37501 2.2922 9.37501H17.7111C18.1051 9.37501 18.3022 9.37501 18.4244 9.25194C18.5467 9.12888 18.5453 8.93285 18.5426 8.5408C18.5344 7.36596 18.5045 6.38669 18.3951 5.57336C18.2408 4.42615 17.9182 3.51594 17.2028 2.80077C16.4875 2.08561 15.577 1.76308 14.4295 1.60884C13.3097 1.45832 11.8754 1.45833 10.0493 1.45834ZM5.41667 5.41668C5.41667 4.72632 5.97631 4.16668 6.66667 4.16668C7.35702 4.16668 7.91667 4.72632 7.91667 5.41668C7.91667 6.10703 7.35702 6.66668 6.66667 6.66668C5.97631 6.66668 5.41667 6.10703 5.41667 5.41668ZM10 5.41668C10 5.0715 10.2798 4.79168 10.625 4.79168L13.9583 4.79168C14.3035 4.79168 14.5833 5.0715 14.5833 5.41668C14.5833 5.76186 14.3035 6.04168 13.9583 6.04168L10.625 6.04168C10.2798 6.04168 10 5.76186 10 5.41668Z" fill="#A7A6C0"/>
<path fill-rule="evenodd" clip-rule="evenodd" d="M17.7111 10.625H2.2922C1.89813 10.625 1.70109 10.625 1.57884 10.7481C1.4566 10.8711 1.45796 11.0672 1.46069 11.4592C1.46887 12.6341 1.49878 13.6133 1.60816 14.4266C1.76244 15.5739 2.08505 16.4841 2.80042 17.1992C3.51578 17.9144 4.42624 18.2369 5.57377 18.3912C6.69358 18.5417 8.12787 18.5417 9.95395 18.5417H10.0493C11.8754 18.5417 13.3097 18.5417 14.4295 18.3912C15.577 18.2369 16.4875 17.9144 17.2028 17.1992C17.9182 16.4841 18.2408 15.5739 18.3951 14.4266C18.5045 13.6133 18.5344 12.6341 18.5426 11.4592C18.5453 11.0672 18.5467 10.8711 18.4244 10.7481C18.3022 10.625 18.1051 10.625 17.7111 10.625ZM5.41667 14.5833C5.41667 13.893 5.97631 13.3333 6.66667 13.3333C7.35702 13.3333 7.91667 13.893 7.91667 14.5833C7.91667 15.2737 7.35702 15.8333 6.66667 15.8333C5.97631 15.8333 5.41667 15.2737 5.41667 14.5833ZM10 14.5833C10 14.2382 10.2798 13.9583 10.625 13.9583L13.9583 13.9583C14.3035 13.9583 14.5833 14.2382 14.5833 14.5833C14.5833 14.9285 14.3035 15.2083 13.9583 15.2083L10.625 15.2083C10.2798 15.2083 10 14.9285 10 14.5833Z" fill="#A7A6C0"/>
</svg>
