<svg width="20" height="20" viewBox="0 0 20 20" fill="none" xmlns="http://www.w3.org/2000/svg">
<path d="M9.95886 1.04166L10 1.04166L10.0411 1.04166H10.0412C10.5952 1.04163 11.0726 1.0416 11.4549 1.093C11.8646 1.14808 12.2573 1.2723 12.5758 1.59083C12.8944 1.90937 13.0186 2.30209 13.0737 2.71179C13.1251 3.09408 13.125 3.57146 13.125 4.12552V4.2078C13.125 4.76186 13.1251 5.23924 13.0737 5.62153C13.0186 6.03123 12.8944 6.42395 12.5758 6.74249C12.2573 7.06102 11.8646 7.18524 11.4549 7.24032C11.0726 7.29172 10.5952 7.29169 10.0411 7.29166H9.95886C9.40481 7.29169 8.92742 7.29172 8.54513 7.24032C8.13544 7.18524 7.74272 7.06102 7.42418 6.74249C7.10564 6.42395 6.98142 6.03123 6.92634 5.62153C6.87494 5.23925 6.87497 4.76188 6.875 4.20785V4.2078L6.875 4.16666L6.875 4.12552V4.12547C6.87497 3.57144 6.87494 3.09407 6.92634 2.71179C6.98142 2.30209 7.10564 1.90937 7.42418 1.59083C7.74272 1.2723 8.13544 1.14808 8.54513 1.093C8.92741 1.0416 9.40478 1.04163 9.95881 1.04166H9.95886Z" fill="#A7A6C0"/>
<path d="M4.12555 12.7083L4.16669 12.7083L4.20783 12.7083H4.20788C4.76191 12.7083 5.23928 12.7083 5.62156 12.7597C6.03126 12.8147 6.42398 12.939 6.74252 13.2575C7.06105 13.576 7.18527 13.9687 7.24035 14.3784C7.29175 14.7607 7.29172 15.2381 7.29169 15.7922V15.8745C7.29172 16.4285 7.29175 16.9059 7.24035 17.2882C7.18527 17.6979 7.06105 18.0906 6.74252 18.4091C6.42398 18.7277 6.03126 18.8519 5.62156 18.907C5.23927 18.9584 4.76189 18.9583 4.20783 18.9583H4.12555C3.57149 18.9583 3.09411 18.9584 2.71182 18.907C2.30212 18.8519 1.9094 18.7277 1.59086 18.4091C1.27233 18.0906 1.14811 17.6979 1.09303 17.2882C1.04163 16.9059 1.04166 16.4285 1.04169 15.8745V15.8745L1.04169 15.8333L1.04169 15.7922V15.7921C1.04166 15.2381 1.04163 14.7607 1.09303 14.3784C1.14811 13.9687 1.27233 13.576 1.59086 13.2575C1.9094 12.939 2.30212 12.8147 2.71182 12.7597C3.0941 12.7083 3.57147 12.7083 4.1255 12.7083H4.12555Z" fill="#A7A6C0"/>
<path d="M15.7922 12.7083L15.8334 12.7083L15.8745 12.7083H15.8746C16.4286 12.7083 16.906 12.7083 17.2882 12.7597C17.6979 12.8147 18.0907 12.939 18.4092 13.2575C18.7277 13.576 18.852 13.9687 18.907 14.3784C18.9584 14.7607 18.9584 15.2381 18.9584 15.7922V15.8745C18.9584 16.4285 18.9584 16.9059 18.907 17.2882C18.852 17.6979 18.7277 18.0906 18.4092 18.4091C18.0907 18.7277 17.6979 18.8519 17.2882 18.907C16.906 18.9584 16.4286 18.9583 15.8745 18.9583H15.7922C15.2382 18.9583 14.7608 18.9584 14.3785 18.907C13.9688 18.8519 13.5761 18.7277 13.2576 18.4091C12.939 18.0906 12.8148 17.6979 12.7597 17.2882C12.7083 16.9059 12.7083 16.4285 12.7084 15.8745V15.8745L12.7084 15.8333L12.7084 15.7922V15.7921C12.7083 15.2381 12.7083 14.7607 12.7597 14.3784C12.8148 13.9687 12.939 13.576 13.2576 13.2575C13.5761 12.939 13.9688 12.8147 14.3785 12.7597C14.7608 12.7083 15.2382 12.7083 15.7922 12.7083H15.7922Z" fill="#A7A6C0"/>
<path d="M10 5.83331C10.4603 5.83331 10.8334 6.20641 10.8334 6.66665L10.8334 7.52999V7.53309C10.8334 7.91553 10.8344 8.15939 10.8492 8.34578C10.8637 8.52702 10.8874 8.58583 10.8984 8.60853C10.989 8.79602 11.1835 8.98283 11.4792 9.08781C11.5518 9.11357 11.6657 9.13842 11.9014 9.15221C12.1426 9.16631 12.4539 9.16665 12.9167 9.16665L12.9409 9.16665H12.9409C13.3733 9.16664 13.7336 9.16664 14.0293 9.18393C14.3358 9.20185 14.6271 9.24044 14.9119 9.34154C15.5691 9.57488 16.1316 10.037 16.4357 10.6663C16.5727 10.9498 16.623 11.2383 16.6456 11.5219C16.6667 11.7877 16.6667 12.1073 16.6667 12.4699V12.47L16.6667 13.3333C16.6667 13.7936 16.2936 14.1666 15.8334 14.1666C15.3731 14.1666 15 13.7936 15 13.3333V12.5C15 12.0984 14.9994 11.8459 14.9842 11.6542C14.9697 11.4729 14.946 11.4141 14.935 11.3914C14.8444 11.2039 14.6499 11.0171 14.3542 10.9122C14.2817 10.8864 14.1678 10.8615 13.932 10.8477C13.6908 10.8336 13.3795 10.8333 12.9167 10.8333H12.8925H12.8925C12.4601 10.8333 12.0998 10.8333 11.8041 10.816C11.4976 10.7981 11.2063 10.7595 10.9216 10.6584C10.5815 10.5377 10.2667 10.3557 10 10.1209C9.73335 10.3557 9.41862 10.5377 9.07852 10.6584C8.79375 10.7595 8.50248 10.7981 8.19594 10.816C7.90029 10.8333 7.54002 10.8333 7.10758 10.8333H7.10754H7.08338C6.62059 10.8333 6.3093 10.8336 6.06811 10.8477C5.83232 10.8615 5.71843 10.8864 5.64586 10.9122C5.35019 11.0171 5.15564 11.2039 5.06504 11.3914C5.05407 11.4141 5.03034 11.4729 5.01592 11.6542C5.00066 11.8459 5.00004 12.0984 5.00004 12.5V13.3333C5.00004 13.7936 4.62695 14.1666 4.16671 14.1666C3.70647 14.1666 3.33337 13.7936 3.33337 13.3333V12.4699V12.4699C3.33336 12.1073 3.33335 11.7877 3.3545 11.5219C3.37708 11.2383 3.42736 10.9498 3.56441 10.6663C3.8685 10.037 4.43101 9.57488 5.08823 9.34154C5.373 9.24044 5.66427 9.20185 5.97081 9.18393C6.26646 9.16664 6.62673 9.16664 7.05917 9.16665H7.05922L7.08338 9.16665C7.54616 9.16665 7.85745 9.16631 8.09864 9.15221C8.33443 9.13842 8.44832 9.11357 8.52089 9.08781C8.81656 8.98283 9.01111 8.79602 9.10171 8.60853C9.11268 8.58583 9.13641 8.52702 9.15084 8.34578C9.16586 8.15702 9.16669 7.90931 9.16671 7.51843L9.16671 7.49998V6.66665C9.16671 6.20641 9.5398 5.83331 10 5.83331Z" fill="#A7A6C0"/>
</svg>
